<?xml version="1.0" encoding="utf-8"?>
<!-- Generator: Adobe Illustrator 23.0.1, SVG Export Plug-In . SVG Version: 6.00 Build 0)  -->
<svg version="1.1" id="Layer_1" xmlns="http://www.w3.org/2000/svg" xmlns:xlink="http://www.w3.org/1999/xlink" x="0px" y="0px"
	 viewBox="0 0 363 80.7" style="enable-background:new 0 0 363 80.7;" xml:space="preserve">
<style type="text/css">
	.st0{fill-rule:evenodd;clip-rule:evenodd;fill:#515151;}
	.st1{fill-rule:evenodd;clip-rule:evenodd;fill:#E3007C;}
</style>
<path class="st0" d="M334.6,66.6h-6.2v-43l1.5-0.1c1.1-0.1,2.2-0.1,3.3,0l1.5,0.1v25.8L348.7,33l0.7,0c1.2-0.1,2.6-0.1,4.2,0
	l3.2,0.2l-12.8,14l12.3,19.4h-7.5l-9-14.8l-5.2,6.4V66.6z M322.3,66.6h-6.2V46.9c0-5.7-3.1-8.9-8.5-8.9c-5.5,0-9.5,4-9.5,9.4v19.2
	h-6.2V33.1l1.5-0.1c1-0.1,2.1-0.1,3.2,0l1.5,0.1v2.8c2.6-2.3,6-3.6,9.9-3.6c8.5,0,14.3,5.7,14.3,14.1V66.6z M285.5,66.6h-6.4V19.9
	l1.5-0.1c1.1-0.1,2.3-0.1,3.4,0l1.5,0.1V66.6z M253.6,67h-6.2V33.1l1.5-0.1c1,0,2.1,0,3.2,0l1.5,0.1v5.1c3.2-3.6,7.8-5.6,12.9-5.6
	c0.2,0,0.4,0,0.7,0l1.3,0l-2.3,6.2l-0.3,0c-6.2,0-12.4,4.3-12.4,14V67z M226.4,67.2c-9.9,0-17.3-7.6-17.3-17.6v-0.1
	c0-9.9,7.4-17.6,16.8-17.6c9.6,0,16.3,7.3,16.3,17.7c0,0.6,0,0.8-0.1,1.4l-0.2,1.3h-26.3c1.1,5.5,5.3,9.2,10.8,9.2
	c3.9,0,7-1.4,9.9-4.4l1-1.1l4.5,3.8l-1.1,1.1C238,63.8,233.8,67.2,226.4,67.2z M215.7,46.5h19.9c-1.1-6.6-5.7-9-9.8-9
	C220.8,37.5,216.8,41.2,215.7,46.5z M203.5,67c-6.2,0-10.2-3.6-10.2-9.2V23.4l1.4-0.1c1.1-0.1,2.3-0.1,3.4,0l1.4,0.1v9.2l9.7,0
	l-1.4,5.6l-8.3,0v19.2c0,2.6,1.4,4,3.8,4c0.3,0,0.6,0,0.8-0.1c0.3,0,0.5-0.1,1-0.2l1-0.3l3.5,4.4l-1.8,0.8c-0.8,0.4-1.9,0.7-4,0.8
	C203.7,67,203.6,67,203.5,67z M176.5,67.2c-4.9,0-10-1.6-14.3-4.6l-1.1-0.8l3-5.1l1.4,0.9c4,2.6,7.6,3.9,11.2,3.9
	c3,0,6.2-1.4,6.2-4.4V57c0-2.3-2.5-3.4-7.4-4.8l-0.3-0.1c-5.3-1.5-11.9-3.3-11.9-9.8v-0.1c0-5.8,5.1-10,12.1-10
	c4.1,0,7.3,0.5,11.4,3.2l1.1,0.7l-2.5,5.4l-1.5-1c-3.3-2.2-5.6-2.6-8.5-2.6c-3.4,0-5.8,1.6-5.8,3.9V42c0,2.2,3.2,3.3,7.8,4.6
	c4.4,1.2,11.7,3.2,11.7,10.1v0.1C189.1,62.8,183.8,67.2,176.5,67.2z M142.6,67.5c-4.5,0-8.4-1.6-11.7-4.7v3.9h-6.2v-45l1.3-0.2
	c0.5-0.1,1.1-0.1,1.6-0.1c0.7,0,1.3,0.1,1.9,0.1l1.4,0.1v15.3c3.3-3.2,7.2-4.9,11.7-4.9c8.5,0,17.2,6.6,17.2,17.6v0.1
	C159.7,60.9,151,67.5,142.6,67.5z M142.2,38c-5.6,0-11.5,4.5-11.5,11.8v0.1c0,5.7,4.4,11.8,11.5,11.8c6.6,0,11-4.7,11-11.7v-0.1
	C153.3,42,147.7,38,142.2,38z M102.2,67.5c-10.1,0-18-7.7-18-17.6v-0.1c0-9.9,8-17.7,18.1-17.7c10.1,0,18,7.7,18,17.6v0.1
	C120.4,59.7,112.4,67.5,102.2,67.5z M102.2,37.9c-6.6,0-11.5,5.1-11.5,11.8v0.1c0,6.7,5.1,11.9,11.7,11.9c6.6,0,11.6-5.1,11.6-11.8
	v-0.1C113.9,43.1,108.8,37.9,102.2,37.9z M86.6,66.8h-24v-47l1.4-0.2c0.6-0.1,1.1-0.1,1.7-0.1c0.7,0,1.4,0.1,1.9,0.1l1.4,0.1v41.1
	h14.4l0.7,1.4c0.4,0.7,0.7,1.4,1.2,2.3L86.6,66.8z"/>
<path class="st1" d="M25.8,34.6c0.2-0.5,0.4-1.1,0.6-1.6c0.1-0.3,0,0,1.8-2.9c0-0.1,0.1-0.1,0.1-0.2c-0.1-0.5-0.1-0.9-0.1-1.3
	c-0.1-0.3-0.2-0.6-0.2-0.9c-0.2-0.6-1-3.4-3.1-6.8c-0.2-0.3-0.4-0.7-0.7-1.1c-0.3,1.1-0.9,2.6-2.1,4.2c-1.1,1.4-2.4,2.4-3.3,2.9
	c0.2,0.7,0.6,1.5,1.1,2.2c0.4,0.5,0.9,0.9,1.8,1.6c1.1,0.9,1.2,0.8,1.9,1.3C24.1,32.2,25.2,33.2,25.8,34.6z M35.9,34.2
	c-0.1-0.4-0.3-0.8-0.5-1.2c-0.1-0.3,0,0-1.8-2.9c0-0.1-0.1-0.1-0.1-0.2c0.1-0.3,0.1-0.6,0.1-0.9c0.1-0.3,0.1-0.5,0.2-0.8
	c0.2-0.6,1-3.9,3.1-7.2c0.1-0.2,0.3-0.5,0.5-0.8c0.3,1.1,0.9,2.4,2,3.8c1.1,1.4,2.4,2.4,3.3,2.9c-0.2,0.7-0.6,1.5-1.1,2.2
	c-0.4,0.5-0.9,0.9-1.8,1.6c-1.1,0.9-1.2,0.8-1.9,1.3C37.5,32.2,36.6,33,35.9,34.2z M39.1,14.4c-1.2-0.9-2.7-2.3-3.9-4.3
	c-0.4-0.7-0.7-1.3-1-1.9c-0.3-0.6-0.6-1.1-0.8-1.6c-2.3,5,3,10.4,3.8,11.2c0,0,0.1,0.1,0.1,0.1c-1.8,2.5-2.9,5-3.9,7.3
	c-0.4,0.9-0.7,1.7-1,2.6c0,0-0.1,0.1-0.1,0.1c-0.1-0.2-0.2-0.3-0.3-0.4c0-0.8,0.1-1.5,0.1-1.8c0.1-1,0.2-2.3,1.3-3.7
	c1-1.4,1.4-2.5,1.3-3c-0.1-0.4-0.2-0.1-0.2,0c0,0.1,0,0.6-2,3.4c-1,1.3-1.4,3.1-1.6,4.6c-0.2-1.5-0.6-3.3-1.6-4.6
	c-2-2.8-2-3.3-2-3.4c0-0.1-0.1-0.5-0.2,0c-0.1,0.4,0.2,1.5,1.3,3c1,1.4,1.2,2.7,1.3,3.7c0,0.3,0.1,0.9,0.1,1.8
	c-0.1,0.1-0.2,0.2-0.3,0.4c0,0-0.1-0.1-0.1-0.1c-0.3-0.9-0.6-1.7-1-2.6c-1-2.4-2.1-4.9-4-7.5c1-1.1,5.9-6.3,3.7-11.1
	c-0.4,1-1,2.1-1.8,3.3c-1.1,1.6-2.3,2.9-3.3,3.7c0-0.9,0.1-2.1,0.6-3.4c0.9-2.6,2.5-4.2,3.4-5c-0.8-0.4-1.9-0.9-3.4-0.9
	C19.9,4.4,17,7.7,15.4,10c-4.5-2.3-8.5-2.7-9-2.3C6.3,7.7,6.2,7.9,6.2,8c0.1,0.3,1.9,0.8,2.1,0.8c1.5,0,4.1,0.9,6.5,2.2
	c-0.4,0.6-0.6,1.1-0.7,1.2c-2.6,5.3-2.4,12.8,0.7,14.6c0,0,0,0,0.1,0c0,0,0,0,0,0c0.1,0.2,0.2,0.5,0.2,0.8c0,0.7-0.2,1.4-0.6,1.7
	c-0.2,0.1-0.4,0.2-0.4,0.2c-0.3,0.2-0.6,0.2-0.8,0.2c-0.1,0-0.2,0.1-0.2,0.2c-0.1,0.2,0,0.3,0.1,0.4c0.6,1.2,1,1.8,6.5,5.9
	c0,0,0,0,0,0c0.7,0.5,1.9,1.2,1.9,1.2c0.5,0.3,1.2,0.8,1.5,1c1.5,1.1,1.3,3.8,1.3,4.7c0,1.9,0.6,3.9,1.4,5.5c-0.3,0.4-0.6,0.8-0.8,1
	c-0.2,0.5-0.5,0.8-0.4,1.2c0,0.4,0.3,0.7,0.6,1.1c0.2,0.4,0.7,0.6,0.8,0.8c-0.1,0.1-0.2,0.2-0.3,0.3c-0.2,0.4-0.7,0.7-0.7,1
	c0,0.2,0.1,0.3,0.2,0.5c0.1,0.4,0.6,0.7,0.8,0.9c-0.4,0.6-0.7,1.1-0.7,1.4c0.1,0.7,0.9,1.5,0.9,1.5c0,0-0.6,1.3-0.6,1.8
	c0.1,0.4,0.7,1.4,0.9,1.6c0,0-0.7,1.2-0.6,1.5c0.1,0.4,0.6,1.2,0.9,1.5c0,0-0.7,0.9-0.6,1.2c0.1,0.4,0.7,1.2,0.8,1.4
	c0.1,0.1,0.2,0.3,0.3,0.7c-2.2,0.9-6.3,3.1-4.8,6.2c0,0,0.7,0.7,2.6,0.2c0,0,0.9,0.9,1.3,0.9c0.5,0,0.9-0.2,1.8-0.8
	c0,0,0.9,1.3,2.4,1.7c0.1,0,0.2,0.1,0.4,0.1c0.1,0,0.3,0,0.4-0.1c1.5-0.3,2.4-1.7,2.4-1.7c0.9,0.6,1.3,0.8,1.8,0.8
	c0.5,0,1.3-0.9,1.3-0.9c1.9,0.5,2.6-0.2,2.6-0.2c1.5-3.1-2.6-5.2-4.8-6.2c0.2-0.4,0.3-0.7,0.3-0.7c0.2-0.2,0.7-1.1,0.8-1.4
	c0.1-0.4-0.6-1.2-0.6-1.2c0.2-0.3,0.7-1.2,0.8-1.5c0.1-0.4-0.6-1.5-0.6-1.5c0.2-0.3,0.7-1.2,0.8-1.6c0.1-0.4-0.5-1.8-0.5-1.8
	c0,0,0.8-0.8,0.9-1.5c0-0.3-0.2-0.8-0.6-1.4c0.2-0.3,0.6-0.6,0.7-0.9c0.1-0.2,0.1-0.4,0.2-0.5c-0.1-0.3-0.4-0.6-0.7-1
	c-0.1-0.1-0.2-0.2-0.3-0.3c0.2-0.2,0.5-0.5,0.8-0.8c0.3-0.5,0.6-0.7,0.6-1.1c0-0.4-0.2-0.7-0.4-1.2c-0.1-0.3-0.5-0.8-0.9-1.3
	c0.8-1.6,1.3-3.4,1.3-5.3c0-1-0.2-3.6,1.3-4.7c0.3-0.2,0.9-0.6,1.5-1c0,0,1.2-0.7,1.9-1.2c0,0,0,0,0,0c5.5-4.1,5.8-4.7,6.5-5.9
	c0-0.1,0.1-0.2,0.1-0.4c0-0.1-0.2-0.2-0.2-0.2c-0.2,0-0.5,0-0.8-0.2c0,0-0.2-0.1-0.4-0.2c-0.4-0.2-0.6-1-0.6-1.7
	c0-0.3,0.1-0.5,0.2-0.8c0,0,0,0,0,0c0,0,0,0,0.1,0c3.4-2,3.9-9.9,0.8-15.4c0-0.1-0.1-0.3-0.3-0.5c2.6-1.2,5.4-2.1,6.9-2.2
	c0.2,0,1.6-0.5,1.6-0.8c0-0.1-0.2-0.2-0.2-0.3c-0.5-0.4-4.4,0-8.9,2.3c-1.5-2.1-4.6-5.6-8.7-5.4c-1.4,0-2.6,0.5-3.4,0.9
	c0.1,0,0.2,0.1,0.3,0.1c0,0,0.1,0,0.2,0c0.2,0.1,0.5,0.2,0.7,0.4c0.4,0.3,0.7,0.6,0.9,0.9c0.1,0.3,0.2,0.7,0.5,1.1
	c0.3,0.5,0.8,0.8,1,0.9c0,0.1-0.1,0.5,0,1c0.2,0.6,0.7,0.8,0.8,0.9c-0.1,0.4,0,0.7,0.1,1.1c0.2,0.6,0.5,0.7,0.6,1.1
	c0,0.4-0.1,0.7-0.3,1C39.3,14.2,39.2,14.3,39.1,14.4z"/>
</svg>
